<?xml version="1.0" encoding="UTF-8" standalone="no"?>
<!-- Created with Inkscape (http://www.inkscape.org/) -->

<svg
   version="1.1"
   id="svg182"
   width="877.33331"
   height="888.66669"
   viewBox="0 0 877.33334 888.66669"
   sodipodi:docname="sun.svg"
   inkscape:version="1.2.1 (9c6d41e410, 2022-07-14)"
   xmlns:inkscape="http://www.inkscape.org/namespaces/inkscape"
   xmlns:sodipodi="http://sodipodi.sourceforge.net/DTD/sodipodi-0.dtd"
   xmlns="http://www.w3.org/2000/svg"
   xmlns:svg="http://www.w3.org/2000/svg">
  <defs
     id="defs186" />
  <sodipodi:namedview
     id="namedview184"
     pagecolor="#ffffff"
     bordercolor="#000000"
     borderopacity="0.25"
     inkscape:showpageshadow="2"
     inkscape:pageopacity="0.0"
     inkscape:pagecheckerboard="0"
     inkscape:deskcolor="#d1d1d1"
     showgrid="false"
     inkscape:zoom="0.56527778"
     inkscape:cx="397.14988"
     inkscape:cy="247.66585"
     inkscape:window-width="1920"
     inkscape:window-height="1017"
     inkscape:window-x="-8"
     inkscape:window-y="-8"
     inkscape:window-maximized="1"
     inkscape:current-layer="g188" />
  <g
     inkscape:groupmode="layer"
     inkscape:label="Image"
     id="g188"
     transform="translate(-269.53316,-472.35872)">
    <g
       id="g300"
       transform="translate(49.53317,242.35872)">
      <path
         style="fill:#fceacf;stroke-width:1.33333"
         d="m 624.58765,1061.1754 c -15.81345,-31.6203 -28.43365,-58.3203 -28.04488,-59.3334 0.5824,-1.5177 8.05007,-1.8132 42.41537,-1.6786 22.93968,0.09 48.00851,0.5398 55.70851,1 12.95329,0.7741 13.98039,1.036 13.73761,3.5033 -0.19505,1.9824 -34.0581,77.0329 -50.0836,111 -0.77846,1.65 -2.21772,3 -3.19833,3 -1.01628,0 -14.14635,-24.7216 -30.53468,-57.4913 z m 140.41282,-5.9855 c -53.54039,-50.6327 -53.83569,-50.9376 -51.5217,-53.1938 1.02,-0.9945 8.75455,-4.19921 17.18788,-7.12155 8.43333,-2.92235 30.63333,-10.76103 49.33333,-17.41928 33.29631,-11.85539 37.87089,-13.15487 39.13109,-11.11583 0.63228,1.02305 -7.9017,114.73166 -9.20585,122.66056 -0.42365,2.5757 -1.49923,4.3333 -2.65184,4.3333 -1.06649,0 -20.08931,-17.1645 -42.27291,-38.1434 z m -263.61279,32.4768 c -2.12587,-5.2199 -15.12413,-126.46359 -13.70952,-127.87821 1.21472,-1.21472 99.96379,34.78583 103.98849,37.91067 0.91667,0.71172 1.66667,1.84073 1.66667,2.50894 0,1.559 -88.02115,90.4586 -89.56479,90.4586 -0.63748,0 -1.70886,-1.35 -2.38085,-3 z m 379.94563,-95.43785 c -46.42533,-20.04164 -58.05741,-25.55629 -58.28772,-27.63361 -0.21401,-1.93043 10.30522,-11.30489 41.0641,-36.59524 22.74349,-18.7 42.36578,-34 43.60507,-34 1.51103,0 3.00436,2.19607 4.53338,6.66667 5.07144,14.82806 31.81934,114.14543 31.06854,115.36023 -0.44408,0.7185 -1.52201,1.2916 -2.3954,1.2734 -0.87338,-0.018 -27.68797,-11.3004 -59.58797,-25.07145 z m -512.65279,18.10445 c -0.313,-0.9166 6.18732,-29.56663 14.44516,-63.66663 13.97904,-57.72515 15.2105,-62 17.8604,-62 3.3124,0 84.34724,69.05261 84.34724,71.87522 0,1.98666 0.9598,1.50503 -65.67597,32.95591 C 393.43556,1001.874 371.36674,1012 370.61551,1012 c -0.75124,0 -1.62197,-0.75 -1.93499,-1.6667 z M 627.99998,967.87205 C 573.8514,961.8328 524.19788,942.12732 481.04899,909.55315 390.84983,841.45955 347.6566,727.75587 369.5354,616 389.83308,512.32045 465.75812,426.49196 566.54677,393.291 c 34.89273,-11.49407 62.02089,-15.28877 101.98448,-14.26564 27.45829,0.70297 45.06957,3.07743 67.46873,9.09648 50.89796,13.67717 97.79884,41.41827 135.38144,80.07583 22.50609,23.14984 40.13592,48.01989 53.262,75.13566 19.46189,40.20427 28.27625,76.13483 29.63304,120.79512 1.55938,51.32886 -7.47319,94.38655 -29.08258,138.63471 -44.6956,91.52036 -130.89955,152.81244 -231.46794,164.57655 -18.13605,2.12149 -49.22021,2.37326 -65.72596,0.53234 z m 346,-71.27082 c -27.13334,-1.69567 -52.03334,-3.27462 -55.33334,-3.50879 -4.96918,-0.35263 -6,-0.88391 -6,-3.09244 0,-4.36863 53.9054,-95.34028 56.46452,-95.29048 2.35599,0.0459 74.20214,99.59367 74.20214,102.81219 0,2.74862 -13.4869,2.56957 -69.33332,-0.92048 z m -702.15884,-5.45931 c -1.97984,-2.38555 68.34229,-108.47525 71.9034,-108.47525 2.40305,0 6.90116,7.64108 47.87873,81.33316 3.87387,6.96657 7.04339,13.66028 7.04339,14.87488 0,2.74656 1.18885,2.59106 -64.66667,8.45753 -28.6,2.54772 -53.97418,4.82255 -56.38706,5.05519 -2.4129,0.23264 -5.01019,-0.32784 -5.77179,-1.24551 z M 971.15863,790.02559 c -0.71177,-1.85484 17.53604,-105.24688 18.99053,-107.60031 0.37118,-0.60057 1.57495,-1.09195 2.67507,-1.09195 1.10012,0 22.81467,14.22372 48.25467,31.60828 25.4399,17.38455 48.5252,33.10478 51.3007,34.93383 2.8913,1.90535 4.8766,4.20676 4.649,5.38899 -0.2752,1.429 -8.181,4.42489 -25.713,9.74397 C 1003.8976,783.46247 975.1191,792 973.58995,792 c -0.92052,0 -2.01461,-0.88849 -2.43132,-1.97441 z M 333.99999,777.21643 c -2.2,-0.67156 -27.9991,-7.57027 -57.33134,-15.33046 -50.2084,-13.28322 -56.66866,-15.32777 -56.66866,-17.93457 0,-1.03473 93.36486,-70.19711 101.41699,-75.1272 2.35539,-1.44213 4.58963,-2.00913 5.25401,-1.33333 0.63576,0.64669 3.34388,14.6758 6.01803,31.1758 2.67414,16.5 6.59636,40.73436 8.71602,53.85414 2.11966,13.11978 3.53524,24.36978 3.14575,25 -0.88133,1.42603 -5.29965,1.29858 -10.5508,-0.30438 z m 657.35679,-101.3985 c -1.08334,-2.91504 -18.02347,-102.41673 -18.02347,-105.86486 0,-1.72096 0.50445,-3.44079 1.121,-3.82184 0.61656,-0.38106 24.46656,5.24112 52.99999,12.49369 28.5335,7.25259 55.929,14.20189 60.879,15.44289 6.8335,1.71323 9,2.81946 9,4.59547 0,2.39891 -98.09404,77.08796 -102.89287,78.34288 -1.32443,0.34635 -2.71208,-0.18836 -3.08365,-1.18823 z M 318.48294,659.11145 c -39.11805,-26.74694 -94.81309,-66.42038 -95.40357,-67.95914 -1.24062,-3.23296 -10.54772,-0.20856 94.13313,-30.58908 19.86868,-5.7663 30.32474,-8.22598 31.20912,-7.3416 0.88437,0.88437 -2.11008,19.29206 -8.93778,54.94297 -5.64725,29.48717 -10.57677,54.11307 -10.95447,54.72421 -1.14836,1.85808 -2.60602,1.31002 -10.04643,-3.77736 z M 967.67135,555 c -36.15045,-62.19264 -50.59895,-88.60576 -49.22217,-89.98253 1.51526,-1.51527 123.91882,-14.58558 125.88412,-13.44198 0.55,0.32004 1,1.43546 1,2.47871 0,3.03196 -69.40931,108.61247 -71.40255,108.61247 -0.99167,0 -3.8084,-3.45 -6.2594,-7.66667 z M 343.60423,542.33333 C 340.37912,537.75 327.65034,519.6 315.31806,502 c -12.33229,-17.6 -25.96207,-37.01779 -30.28839,-43.15064 -8.02068,-11.36987 -8.81508,-14.83789 -3.40485,-14.86409 10.20843,-0.0495 125.91189,8.46617 126.83202,9.33465 1.45703,1.37524 2.05255,0.29255 -27.50925,50.01341 -25.18012,42.3512 -28.38204,47.33334 -30.42021,47.33334 -0.58263,0 -3.69804,-3.75 -6.92315,-8.33334 z M 873.0255,427 c -22.47668,-18.88333 -41.22447,-35.18985 -41.66176,-36.23672 -0.43729,-1.04687 -0.0231,-2.61735 0.92059,-3.48996 2.70513,-2.5016 109.96627,-53.93999 112.47757,-53.93999 3.23132,0 2.61186,3.46675 -11.31664,63.33334 -6.65406,28.6 -12.7612,54.85 -13.57144,58.33333 -1.04143,4.47732 -2.13376,6.33333 -3.72739,6.33333 -1.23984,0 -20.64425,-15.45 -43.12093,-34.33333 z m -463.53315,20.66667 c -3.49041,-10.95134 -30.82569,-114.76492 -30.82569,-117.06942 0,-1.57477 0.90946,-2.59725 2.31017,-2.59725 1.2706,0 28.2706,11.50308 60,25.5624 43.82392,19.4184 57.68982,26.11465 57.68982,27.86009 0,1.36906 -9.83478,10.28311 -24.33333,22.05527 -13.38333,10.86665 -28.83333,23.41321 -34.33333,27.88123 -5.5,4.46802 -13.47335,10.94008 -17.71855,14.38234 -4.24521,3.44227 -8.54868,6.25867 -9.56326,6.25867 -1.0146,0 -2.46622,-1.95 -3.22583,-4.33333 z m 372.50763,-76.40523 c -57.81972,-21.26436 -59.33333,-21.8804 -59.33333,-24.14843 0,-2.75197 85.45702,-90.77885 88.30793,-90.96352 1.37027,-0.0888 2.58753,1.06935 2.99615,2.85051 1.27256,5.54724 14.284,113.59369 14.49108,120.33333 0.1775,5.77726 -0.15094,6.69752 -2.46183,6.89798 -1.46667,0.1272 -21.26667,-6.60923 -44,-14.96987 z m -278.92507,7.87928 c -0.86138,-2.24471 -0.34103,-9.52843 5.55852,-77.80739 4.07393,-47.14988 4.1967,-48 6.93232,-48 1.16137,0 14.38752,11.85 29.39145,26.33334 55.09265,53.18108 61.84726,59.39552 63.14638,58.0964 0.70191,-0.70191 11.97608,-25.23574 25.05372,-54.51963 C 652.33206,240.30668 657.42269,230 659.45505,230 c 1.97813,0 8.77981,12.25687 31.6216,56.98327 16.00577,31.3408 28.72592,57.5908 28.26701,58.33333 -0.54166,0.87643 -20.4276,1.35007 -56.68381,1.35007 -55.84944,0 -55.84944,0 -106.2486,17.33333 -27.71954,9.53333 -50.87072,17.33333 -51.44706,17.33333 -0.57634,0 -1.42652,-0.98668 -1.88928,-2.19261 z"
         id="path314" />
      <path
         style="fill:#fbe2ba;stroke-width:1.33333"
         d="m 625.33642,1061.3395 c -15.4017,-30.7966 -28.0031,-56.8966 -28.0031,-58 0,-1.7531 6.76908,-2.0036 53.66666,-1.9858 29.51667,0.011 54.51975,0.5604 55.56242,1.2203 2.1755,1.3769 4.03356,-3.08265 -27.53688,66.0927 -20.75798,45.4836 -22.36162,48.6666 -24.51903,48.6666 -0.64183,0 -13.76836,-25.1972 -29.17007,-55.9938 z m 137.74033,-9.4876 c -23.32556,-22.0815 -44.18933,-41.8722 -46.36394,-43.9795 -2.56829,-2.4887 -3.49829,-4.2869 -2.65387,-5.1314 1.77772,-1.7777 98.75856,-36.07433 102.00772,-36.07433 1.42999,0 2.59999,0.63202 2.59999,1.40452 0,4.46932 -9.52568,120.88481 -10.00408,122.26211 -0.3184,0.9167 -1.16318,1.6667 -1.87731,1.6667 -0.71412,0 -20.38296,-18.0667 -43.70851,-40.1481 z m -261.08078,35.8148 c -0.48981,-1.3908 -6.59349,-53.9521 -12.93334,-111.37462 -0.96388,-8.7302 -1.05,-14.17139 -0.23716,-14.98423 1.49381,-1.49381 102.00684,35.85579 102.78636,38.19435 0.52856,1.5857 -85.72032,89.8311 -87.79868,89.8311 -0.6766,0 -1.49434,-0.75 -1.81718,-1.6666 z m 378.94638,-96.64402 c -42.36936,-18.39561 -56.95692,-25.29579 -56.66642,-26.8042 0.55053,-2.85868 81.29213,-69.61849 83.6949,-69.20172 1.39711,0.24235 6.72287,17.41747 18.29381,58.99589 8.97762,32.25971 16.34074,59.40405 16.36247,60.32065 0.0217,0.9167 -1.01047,1.6207 -2.2938,1.5645 -1.28333,-0.056 -28.00927,-11.2501 -59.39096,-24.87512 z m -510.85333,18.45472 c -0.40427,-0.6541 4.60953,-23.30413 11.14177,-50.33336 6.53224,-27.02923 13.1856,-54.72817 14.78523,-61.55321 2.4499,-10.45282 3.2922,-12.34467 5.3427,-12 2.6046,0.4378 82.64127,68.57669 82.64127,70.35629 0,0.58283 -0.75,1.66603 -1.66667,2.40708 -1.95816,1.58305 -109.17876,52.3125 -110.56649,52.3125 -0.51853,0 -1.27356,-0.5352 -1.67781,-1.1893 z M 619.3875,965.84053 C 487.63452,947.42509 385.00602,844.09703 367.26556,712 c -2.81248,-20.94197 -2.482,-59.51308 0.69492,-81.10693 18.03039,-122.55414 110.67033,-220.58923 232.04744,-245.56136 63.35524,-13.03472 128.0845,-5.15994 186.38582,22.67516 75.78251,36.18124 133.74726,104.78213 156.31424,184.99678 25.9895,92.38012 6.35969,190.01074 -53.22954,264.74179 -38.48253,48.26109 -93.35975,84.35372 -152.51533,100.30903 -26.56482,7.16501 -39.75438,8.87357 -72.29646,9.3652 -22.48479,0.33969 -34.56528,-0.0816 -45.27915,-1.57914 z m 348.61248,-70.5775 c -27.5,-1.69144 -51.05,-3.11758 -52.33334,-3.16919 -1.28333,-0.0516 -2.33333,-0.95645 -2.33333,-2.01076 0,-1.05429 11.20185,-21.00429 24.893,-44.33333 13.69115,-23.32903 25.84115,-44.07452 27,-46.10111 1.15885,-2.02659 2.97193,-3.52512 4.02908,-3.33008 2.40811,0.44428 73.59491,99.63887 72.62821,101.20305 -1.0456,1.69183 -18.1646,1.16851 -73.88362,-2.25858 z m -695.37995,-4.6718 c -1.2889,-2.0855 68.59308,-106.59704 71.25731,-106.56842 1.28525,0.0139 4.81049,4.87936 8.93586,12.33334 3.74726,6.77078 15.32236,27.55865 25.72243,46.19526 10.40008,18.63662 18.72604,34.83598 18.50215,35.99858 -0.34439,1.78822 -8.61944,2.8638 -53.72244,6.98266 -29.32344,2.67786 -57.02233,5.2408 -61.55309,5.69543 -5.39079,0.54093 -8.55034,0.32083 -9.14222,-0.63685 z M 971.99998,787.87451 c 0,-2.49263 13.86378,-80.57484 17.43716,-98.20784 0.95617,-4.71828 2.07318,-7 3.42684,-7 2.03881,0 96.30342,63.51706 101.06192,68.09717 1.4259,1.37248 2.2357,2.85227 1.7996,3.28841 -1.1054,1.10536 -119.0713,36.61442 -121.63811,36.61442 -1.2298,0 -2.08741,-1.14716 -2.08741,-2.79216 z m -691.88459,-25.9854 c -31.1032,-8.31875 -57.1732,-15.74691 -57.93333,-16.50704 -0.86977,-0.86978 -0.91255,-1.81688 -0.11533,-2.55511 0.69666,-0.64516 23.9639,-17.81793 51.70496,-38.16169 35.37629,-25.94303 50.85833,-36.56864 51.84486,-35.58211 0.77362,0.77361 2.47611,7.89639 3.78331,15.82837 10.5467,63.99635 14.52262,90.13531 13.87064,91.19023 -0.41863,0.67736 -2.07575,1.15973 -3.68247,1.07195 -1.60672,-0.0877 -28.36937,-6.96587 -59.47257,-15.2846 z m 711.34588,-89.55578 c -0.41281,-2.01666 -4.35845,-24.96666 -8.76808,-51 -4.40963,-26.03333 -8.246,-48.31692 -8.52527,-49.51906 -1.36385,-5.87091 0.62772,-5.55015 61.30438,9.87329 48.1308,12.2344 59.861,15.64077 59.861,17.3832 0,2.27064 -98.47811,76.92924 -101.47319,76.92924 -0.90653,0 -1.98601,-1.65 -2.39884,-3.66667 z m -715.7555,-44.09649 c -26.92848,-18.86057 -49.69848,-35.02955 -50.6,-35.93107 -1.03254,-1.03253 -1.17036,-2.09829 -0.37244,-2.87992 2.48146,-2.43082 121.06973,-36.15612 122.41287,-34.81297 0.84386,0.84385 -2.07913,19.19852 -8.33569,52.34333 -10.90248,57.75716 -10.4456,55.73427 -12.56704,55.64151 -0.86724,-0.0379 -23.60921,-15.50031 -50.5377,-34.36088 z M 945.8739,515.19324 c -14.59732,-25.44069 -26.72471,-47.01547 -26.94975,-47.94393 -0.22504,-0.92848 0.67496,-2.02082 2,-2.42743 1.32504,-0.4066 26.70916,-3.15843 56.40916,-6.11516 29.69999,-2.95672 56.84999,-5.73161 60.33329,-6.16641 5.2876,-0.66 6.3334,-0.43183 6.3334,1.38178 0,2.91303 -67.61602,106.63744 -69.83981,107.13576 -1.065,0.23866 -12.09471,-17.64538 -28.28629,-45.86461 z M 314.23511,498.72808 c -19.56265,-27.86891 -35.56845,-51.28364 -35.56845,-52.03275 0,-0.77245 3.31851,-1.34984 7.66667,-1.3339 16.28441,0.0597 119.37037,7.80894 120.62949,9.06806 1.39198,1.39199 -52.9814,93.5767 -55.73602,94.49491 -0.78278,0.26092 -17.42904,-22.32743 -36.99169,-50.19632 z m 563.05704,-69.47015 c -42.088,-35.42244 -46.38522,-39.38574 -44.58106,-41.11684 2.69272,-2.58364 106.7803,-52.35252 109.95555,-52.57461 2.63799,-0.18451 3.24884,0.32313 2.92827,2.43352 -0.32755,2.15632 -23.29495,102.68973 -26.80496,117.33129 -0.52713,2.19888 -1.83905,4.16756 -2.91536,4.37483 -1.07631,0.20728 -18.43841,-13.4944 -38.58244,-30.44819 z m -466.63328,18.40874 c -1.85616,-4.33699 -30.65888,-113.38296 -30.65888,-116.07332 0,-4.17891 -4.90443,-6.1314 89.58914,35.66614 14.4407,6.38758 26.91215,12.40463 27.71434,13.37122 1.14301,1.37722 -7.63623,9.14293 -40.58173,35.89669 -23.12216,18.7766 -42.65648,34.13927 -43.4096,34.13927 -0.75312,0 -1.9471,-1.35 -2.65327,-3 z m 364.21638,-80.26488 c -26.65194,-9.78152 -49.09653,-18.42306 -49.87687,-19.20339 -1.92236,-1.92236 3.3956,-7.82996 48.18877,-53.53173 25.89206,-26.41727 37.67704,-37.58296 38.66354,-36.6318 1.22344,1.17962 16.14748,116.05088 16.14881,124.29846 3.2e-4,1.99642 -0.78008,2.97543 -2.33285,2.92652 -1.28334,-0.0404 -24.13947,-8.07653 -50.7914,-17.85806 z m -271.38641,11.51652 c -0.36768,-0.59492 -0.13743,-6.74492 0.51169,-13.66667 0.64911,-6.92173 3.03672,-33.88497 5.30582,-59.91831 2.26908,-26.03333 4.4016,-48.12768 4.73892,-49.09854 0.33733,-0.97087 1.43853,-1.57087 2.4471,-1.33334 1.00859,0.23754 21.43366,19.33188 45.38904,42.43188 23.95538,23.1 44.32721,42.17382 45.27075,42.38627 1.09965,0.24759 10.47856,-19.25804 26.12514,-54.33333 13.92628,-31.21887 25.14908,-54.7196 26.13139,-54.7196 0.94697,0 9.93631,16.05 19.97631,35.66666 10.04,19.61667 23.13564,45.1383 29.10142,56.71474 9.09254,17.6438 10.52342,21.25498 8.8469,22.32738 -1.19824,0.76646 -24.28382,1.25996 -57.58732,1.23104 -55.58731,-0.0483 -55.58731,-0.0483 -104.43915,16.67263 C 528.43833,372.4756 505.93804,380 505.30619,380 c -0.63186,0 -1.44966,-0.48676 -1.81735,-1.08169 z"
         id="path312" />
      <path
         style="fill:#fbdaa9;stroke-width:1.33333"
         d="m 625.2995,1059.9324 c -15.422,-30.8372 -27.68798,-56.6372 -27.25774,-57.3333 0.89956,-1.4555 60.62878,-1.7133 89.62489,-0.3868 14.89263,0.6813 19,1.2689 19,2.7182 0,3.6996 -49.86433,111.0695 -51.58252,111.0695 -0.96505,0 -14.27381,-25.0529 -29.78463,-56.0676 z m 134.36715,-12.0809 c -24.75,-23.5212 -45,-43.289 -45,-43.9284 0,-1.8229 1.81671,-2.529 53.0461,-20.61638 28.4126,-10.03153 48.83374,-16.57743 49.48018,-15.86061 0.98229,1.08924 -7.00972,112.81469 -8.59968,120.22059 -0.35424,1.65 -1.38264,2.9888 -2.28534,2.9753 -0.90269,-0.014 -21.89126,-19.2693 -46.64126,-42.7905 z m -257.60322,37.2371 c -0.38419,-1.6987 -3.41676,-27.6886 -6.73907,-57.7553 -3.32232,-30.06663 -6.39755,-57.21663 -6.83387,-60.3333 -0.66962,-4.78335 -0.43474,-5.66667 1.50684,-5.66667 3.98367,0 99.62275,36.52918 100.3069,38.31204 0.67768,1.76603 -82.65843,87.35623 -85.78939,88.10993 -0.96411,0.232 -2.06724,-0.968 -2.45141,-2.6667 z m 422.60321,-75.6955 c -8.06666,-3.5427 -33.53181,-14.60062 -56.58922,-24.5731 -23.0574,-9.97248 -42.5574,-18.77836 -43.33333,-19.56864 -1.5939,-1.62337 -2.83511,-0.455 23.28436,-21.91803 9.81676,-8.06666 27.12526,-22.34625 38.46337,-31.73242 16.5825,-13.7277 20.92874,-16.7269 22.22008,-15.33334 1.34178,1.44802 31.6087,108.48173 32.87613,116.26073 0.22657,1.3906 -0.18805,2.7034 -0.92139,2.9172 -0.73333,0.2138 -7.93333,-2.5098 -16,-6.0524 z m -553.55781,-0.8307 c -0.73113,-1.9053 3.91028,-22.17096 24.07653,-105.12469 2.30363,-9.47594 4.85355,-17.45068 5.66651,-17.72167 0.81296,-0.27099 17.30385,13.10465 36.64644,29.72364 43.0412,36.98063 46.99036,40.61429 45.60144,41.9584 -0.60487,0.58535 -24.19976,11.97709 -52.43309,25.31499 -28.23334,13.3379 -52.99411,25.10483 -55.02396,26.14883 -3.28799,1.691 -3.78262,1.6583 -4.53387,-0.2995 z M 628.06752,966.46925 C 589.07764,962.39781 544.39065,947.65272 510.50792,927.67885 482.78468,911.336 451.0492,884.03077 431.0734,859.33333 357.21776,768.02056 344.38767,641.25817 398.54406,537.94051 c 29.67617,-56.6152 74.01798,-99.77251 131.45593,-127.9444 28.63213,-14.04335 51.45484,-21.47804 82.01858,-26.71823 19.53821,-3.34985 63.48111,-4.06601 83.93471,-1.36795 66.70478,8.79916 125.71554,37.97982 172.71336,85.40626 47.35851,47.79041 76.41862,109.73817 83.46199,177.91694 3.29629,31.90767 -0.25059,74.61079 -8.80529,106.01224 -19.15039,70.29472 -65.67154,132.72815 -128.44763,172.38236 -25.23429,15.93992 -59.96596,30.22782 -89.67802,36.89168 -30.38492,6.81479 -67.23197,9.07191 -97.13017,5.94984 z m 342.59912,-71.4412 c -30.43333,-1.80949 -55.85368,-3.78138 -56.48965,-4.382 -1.03444,-0.97693 7.67601,-16.45653 42.754,-75.97938 5.83427,-9.9 11.30824,-18 12.1644,-18 1.80093,0 72.23621,97.83052 72.23721,100.33333 9e-4,2.14756 -2.6026,2.07491 -70.66596,-1.97195 z m -697.33331,-5.90386 c 0,-2.98119 68.65957,-105.11931 70.44071,-104.78775 1.78927,0.33305 53.50576,91.00675 53.54056,93.87177 0.0236,1.94467 -1.94877,2.18584 -63.85553,7.80798 -56.73016,5.15201 -60.12574,5.32754 -60.12574,3.108 z m 699.36638,-99.73736 c -0.77435,-1.2529 17.3488,-103.30798 18.74752,-105.57116 0.39057,-0.63195 1.15825,-1.149 1.70596,-1.149 2.14343,0 100.87161,68.18501 101.25781,69.93205 0.2841,1.2854 -3.0079,2.88985 -10.6667,5.19872 -85.78174,25.86016 -109.16654,32.86923 -109.66362,32.86923 -0.32449,0 -0.94593,-0.57594 -1.38097,-1.27984 z M 327.33333,773.84437 c -6.6,-1.81146 -32.382,-8.6795 -57.29335,-15.26232 -24.91133,-6.58281 -45.88563,-12.56102 -46.60952,-13.28492 -0.86601,-0.86601 -0.65168,-1.95678 0.62668,-3.18918 1.06857,-1.03016 23.69297,-17.82587 50.27645,-37.32382 42.55214,-31.21032 52.33307,-37.69578 52.33307,-34.70062 0,0.74761 2.62735,17.12045 11.38504,70.94828 5.04652,31.01765 5.48096,36.3523 2.94829,36.20385 -0.91667,-0.0537 -7.06667,-1.5798 -13.66666,-3.39127 z m 665.49615,-98.91422 c -0.36366,-0.58843 -3.38542,-16.93843 -6.71504,-36.33334 -3.3296,-19.39492 -7.26125,-42.16348 -8.737,-50.59681 -3.32721,-19.01369 -3.33794,-20 -0.21753,-20 2.2804,0 45.14699,10.6312 97.88639,24.27652 12.6645,3.27668 20.8677,6.03173 20.5978,6.91775 -0.4537,1.48924 -99.52855,76.58104 -101.2321,76.72686 -0.50672,0.0433 -1.21885,-0.40257 -1.58252,-0.99098 z M 303.16622,646.9188 c -11.09192,-7.83867 -33.12736,-23.25213 -48.96764,-34.25213 -26.46372,-18.37724 -30.72896,-22.02412 -27.84392,-23.80718 1.39273,-0.86076 101.57711,-30.06434 111.9518,-32.63378 4.56856,-1.13147 8.62789,-1.7358 9.02073,-1.34295 0.39284,0.39284 -3.20412,21.35492 -7.99324,46.58241 -12.22409,64.39238 -11.18552,59.8804 -13.76182,59.78696 -1.23134,-0.0447 -11.314,-6.49465 -22.40591,-14.33333 z m 669.19909,-87.18521 c -3.22229,-3.97419 -52.36533,-90.76071 -52.36533,-92.47707 0,-2.56405 -0.826,-2.44796 60.66666,-8.52692 61.71916,-6.10135 63.93646,-6.22461 62.88946,-3.49607 -0.9828,2.56124 -65.9953,102.30404 -68.11324,104.50006 -1.37199,1.42256 -1.92414,1.42256 -3.07755,0 z M 341.69666,537.04673 c -50.50257,-71.87105 -62.74521,-89.86485 -61.79139,-90.81868 0.61618,-0.61617 28.33956,0.73524 61.60752,3.00314 33.26796,2.2679 61.5372,4.11865 62.82053,4.1128 1.28334,-0.005 2.33334,0.92573 2.33334,2.0702 0,3.11861 -53.74099,92.52064 -55.63667,92.55561 -0.90016,0.0167 -5.10016,-4.89877 -9.33333,-10.92307 z M 873.99998,425.94436 c -22,-18.63948 -40.19563,-34.81068 -40.43473,-35.93601 -0.42519,-2.00115 7.53478,-6.06423 88.77062,-45.31191 11.91807,-5.75801 22.07919,-10.05913 22.58027,-9.55805 0.77912,0.77912 -8.78323,44.081 -23.81906,107.86161 -2.33349,9.89845 -4.65292,16.9654 -5.55236,16.91716 -0.84961,-0.0456 -19.54474,-15.33332 -41.54474,-33.9728 z M 411.31919,449 c -1.418,-3.95804 -31.3192,-116.73815 -31.3192,-118.12851 0,-0.84598 0.58589,-1.53816 1.30197,-1.53816 0.71608,0 26.96608,11.35543 58.33334,25.2343 36.80887,16.28657 57.03135,25.9105 57.03135,27.14136 0,1.04889 -9.6,9.6766 -21.33333,19.17268 -11.73333,9.49606 -30.33333,24.57997 -41.33333,33.51977 -11,8.9398 -20.46883,16.25667 -21.04184,16.25971 -0.57303,0.003 -1.31055,-0.74448 -1.63896,-1.66115 z m 363.34746,-82.15944 c -27.5,-10.10527 -50,-19.03308 -50,-19.83956 0,-1.60159 84.72144,-89.59317 86.30793,-89.63932 0.53603,-0.0156 1.28015,1.32165 1.6536,2.97165 1.67144,7.38479 15.30193,122.70102 14.63159,123.78567 -0.41278,0.66788 -1.1651,1.18744 -1.67182,1.15456 -0.50672,-0.0329 -23.4213,-8.32773 -50.9213,-18.433 z M 504.42091,377.8404 c -0.69819,-1.81948 2.25702,-39.19027 8.18834,-103.54727 0.93135,-10.10544 2.06299,-18.74317 2.51478,-19.19494 1.08814,-1.08816 6.53994,3.94742 52.66668,48.64586 32.82795,31.81144 39.40802,37.61838 40.88859,36.08427 0.97051,-1.00557 11.48478,-23.72832 23.36506,-50.49499 26.93893,-60.69433 26.35549,-59.52829 28.60633,-57.17125 2.59228,2.71457 56.68263,108.77977 56.68263,111.14837 0,1.77606 -6.80754,2.02288 -55.79127,2.02288 -53.06997,0 -56.1754,0.13512 -63.66666,2.77015 -4.33147,1.52357 -26.94971,9.30929 -50.26276,17.30159 -35.66954,12.22841 -42.51484,14.19925 -43.19172,12.43533 z"
         id="path310" />
      <path
         style="fill:#facf8e;stroke-width:1.33333"
         d="m 626.10994,1060.2201 c -16.12228,-32.2738 -27.45367,-56.4579 -26.88461,-57.3787 0.75015,-1.2138 13.38264,-1.3835 53.21249,-0.7148 28.72586,0.4822 52.74758,1.3497 53.38159,1.9278 1.27136,1.1593 -48.40639,110.8079 -50.52253,111.5133 -0.72527,0.2418 -13.85939,-24.6647 -29.18694,-55.3476 z m 134.28548,-12.2377 c -24.78416,-23.4763 -45.24178,-43.2153 -45.4614,-43.8645 -0.4815,-1.4234 -0.31085,-1.4888 55.73263,-21.37487 25.02592,-8.88003 45.18789,-15.3486 45.85202,-14.71075 0.68978,0.66247 -0.57748,23.88887 -3.03102,55.55312 -4.82918,62.3228 -5.3175,67.0813 -6.88402,67.0813 -0.63036,0 -21.42405,-19.2079 -46.20821,-42.6843 z m -257.05825,38.6905 c -1.19092,-1.9269 -13.94614,-111.70253 -13.98269,-120.33957 -0.012,-2.75 0.35881,-5 0.82321,-5 0.63138,0 83.0919,30.83958 98.15563,36.70942 1.28333,0.50006 2.33333,1.42174 2.33333,2.04815 0,0.6264 -19.39402,20.7764 -43.09785,44.7777 -31.82225,32.2217 -43.39447,43.1589 -44.23163,41.8043 z m 385.32947,-93.48182 c -27.13333,-11.75763 -52.49562,-22.68556 -56.36065,-24.28429 -4.39368,-1.8174 -6.89216,-3.61902 -6.66666,-4.80722 C 826.06939,961.83337 905.26822,896 907.56443,896 c 0.87405,0 1.90024,1.05 2.28043,2.33333 3.79468,12.80922 31.48845,113.90927 31.48845,114.95317 0,0.7591 -0.75,1.3581 -1.66667,1.3311 -0.91666,-0.027 -23.86666,-9.6689 -51,-21.42652 z m -517.95036,14.47562 c 0.0273,-0.9167 6.50755,-28.3667 14.40055,-61.00003 11.84701,-48.981 14.74173,-59.33334 16.59081,-59.33334 2.92816,0 81.22839,67.19187 80.57711,69.14572 -0.27427,0.82279 -11.26678,6.60159 -24.42781,12.84179 -63.0925,29.91481 -84.779,40.01246 -85.93378,40.01246 -0.69108,0 -1.23417,-0.75 -1.20688,-1.6666 z M 634.26929,966.54879 C 542.38793,958.96655 457.0059,906.02104 408.51759,826.55987 356.1939,740.81339 351.5669,634.10124 396.25567,543.76423 447.58559,440.00231 554.75993,375.90211 669.33332,380.43847 c 44.47724,1.76101 81.61567,11.1054 120.34194,30.27921 84.96918,42.06919 144.19138,122.39137 159.71249,216.61565 15.5702,94.52244 -18.20647,193.94646 -88.31464,259.96034 -60.96966,57.40906 -143.22395,86.15229 -226.80382,79.25512 z M 975.10903,894.8294 c -32.39003,-1.92284 -59.36372,-3.96975 -59.94153,-4.54871 -1.31438,-1.31696 -1.44423,-1.07958 27.87052,-50.94736 C 956.4018,816.6 968.16371,798 969.1756,798 c 2.25111,0 72.4507,97.78059 71.4093,99.4656 -0.4083,0.66059 -2.0569,1.12429 -3.6636,1.03047 -1.6067,-0.0939 -29.4223,-1.74384 -61.81227,-3.66667 z m -701.34966,-6.01645 c 0.39122,-1.01955 16.16046,-25.04308 35.04273,-53.38563 27.85168,-41.80577 34.65052,-51.20748 36.02218,-49.81295 3.3478,3.4036 52.43336,92.3277 51.48262,93.26666 -0.80088,0.79094 -113.69621,11.78564 -121.01703,11.78564 -1.36633,0 -1.96405,-0.72394 -1.5305,-1.85372 z M 972.96003,788.33333 c -0.52461,-0.98861 17.05497,-99.3069 18.38413,-102.81793 0.37852,-0.99987 1.76079,-1.53747 3.0717,-1.19465 1.31092,0.34281 19.75364,12.49466 40.98384,27.00412 55.5622,37.97318 59.5931,40.88228 58.3587,42.11674 -1.293,1.29296 -115.31256,35.89172 -118.2805,35.89172 -1.09296,0 -2.226,-0.45 -2.51787,-1 z M 283.99999,761.93207 c -62.27565,-16.6731 -61.60381,-16.476 -61.0848,-17.91971 0.22998,-0.63971 21.11814,-16.36311 46.41814,-34.94088 57.94268,-42.54727 54.67742,-40.27683 55.94714,-38.90209 0.94319,1.0212 17.45792,99.85049 17.40617,104.16394 -0.012,0.96444 -1.56489,1.59832 -3.68665,1.50446 -2.01667,-0.0892 -26.76666,-6.34679 -55,-13.90572 z M 992.67716,673 c -1.99556,-5.80993 -17.71485,-103.16233 -16.80441,-104.07277 0.61812,-0.61812 27.25515,5.52038 59.19345,13.64112 31.9383,8.12074 58.4581,14.76498 58.9328,14.76498 4.0279,0 -6.6339,8.83571 -48.9871,40.59675 -26.9435,20.20512 -49.6123,36.73659 -50.37519,36.73659 -0.76291,0 -1.64469,-0.75 -1.95955,-1.66667 z m -678.0105,-18.78357 c -5.5,-3.86768 -27.85,-19.4733 -49.66667,-34.67914 -21.81666,-15.20584 -39.66666,-28.19689 -39.66666,-28.86901 0,-0.67211 4.05,-2.4208 9,-3.88597 37.25289,-11.02664 110.27005,-32.11564 111.19505,-32.11564 0.62605,0 1.13828,1.37646 1.13828,3.05881 0,3.07247 -18.11845,98.82032 -19.29043,101.94119 -0.95548,2.54437 -1.94328,2.12077 -12.70957,-5.45024 z m 631.54566,-140.3763 c -16.68924,-29.10297 -25.98724,-46.59857 -25.18893,-47.39688 1.02835,-1.02834 110.84871,-13.07202 119.46541,-13.10142 1.7244,-0.005 2.2997,0.71485 1.873,2.3464 -0.9791,3.74416 -66.88278,104.27296 -68.36182,104.27845 -0.73334,0.003 -13.23778,-20.75421 -27.78766,-46.12655 z M 314.79321,497.90251 c -19.30166,-27.57432 -34.57627,-50.6325 -33.94358,-51.24038 1.59488,-1.53233 124.8184,6.99071 125.36549,8.6712 0.51723,1.58874 -53.23509,91.67332 -55.06406,92.28298 -0.69516,0.23172 -17.0562,-22.1395 -36.35785,-49.7138 z M 873.57807,425 C 851.52295,406.48333 833.44533,390.66983 833.40558,389.85888 833.32727,388.26109 940.13834,336 943.48223,336 c 1.30015,0 1.79,0.83949 1.36152,2.33333 -1.05196,3.66762 -27.51044,118.62296 -27.51044,119.52584 0,3.13254 -8.39389,-3.17109 -43.75524,-32.85917 z M 411.3451,447.66667 C 411.03092,446.75 404.46214,422.3 396.74778,393.33333 c -7.71436,-28.96666 -14.63268,-54.74246 -15.37406,-57.27956 -0.74137,-2.53709 -0.90374,-5.05157 -0.36084,-5.58773 0.54291,-0.53615 8.78711,2.50543 18.32044,6.75905 9.53334,4.25363 34.73334,15.40902 56,24.78974 21.26667,9.38073 39.45693,17.77665 40.42281,18.65762 1.4092,1.28531 -6.41812,8.22595 -39.61943,35.13132 -22.75658,18.44126 -42.01567,33.52956 -42.798,33.52956 -0.78232,0 -1.67944,-0.75 -1.9936,-1.66666 z m 362.73477,-81.48752 c -26.35605,-9.73487 -48.14925,-18.38723 -48.42933,-19.22746 -0.51917,-1.55753 83.09888,-88.28502 85.11975,-88.28502 0.60986,0 1.44862,1.95 1.86389,4.33333 0.65764,3.77437 13.46152,108.07725 14.36253,117 0.25103,2.48595 -0.3413,3.40268 -2.33006,3.60613 -1.46667,0.15004 -24.23072,-7.6921 -50.58678,-17.42698 z m -270.07988,10.701 c 0,-2.42626 9.08092,-105.0819 10.08068,-113.95758 0.54992,-4.88197 1.34082,-6.95 2.54962,-6.66666 0.96383,0.22592 21.38338,19.31076 45.37676,42.41076 23.99339,23.1 44.55081,42 45.68319,42 1.42597,0 9.33286,-16.33438 25.72216,-53.13786 22.10156,-49.63082 25.66686,-56.9241 27.10172,-55.43992 2.36556,2.44686 56.76649,110.9177 56.13806,111.93451 -0.50916,0.82385 -21.47129,1.30993 -56.49036,1.30993 -55.68078,0 -55.68078,0 -104.1087,16.66667 -26.63535,9.16667 -49.24359,16.66667 -50.24052,16.66667 -0.99693,0 -1.81261,-0.80394 -1.81261,-1.78652 z"
         id="path308" />
      <path
         style="fill:#f9c472;stroke-width:1.33333"
         d="m 626.3269,1059.3313 c -15.21313,-30.4369 -27.66025,-55.6378 -27.66025,-56.0022 0,-0.9801 84.57944,-0.8049 96.46549,0.1999 6.05066,0.5115 10.19206,1.4608 10.17875,2.3333 -0.0387,2.5351 -48.71505,107.9391 -50.05309,108.3851 -0.69886,0.2329 -13.71775,-24.4793 -28.9309,-54.9161 z m 134.41125,-11.8339 c -24.16068,-22.9543 -44.13602,-42.3576 -44.38969,-43.1186 -0.25365,-0.761 0.44691,-1.7321 1.55679,-2.1579 24.11717,-9.25467 97.35124,-34.13833 98.08985,-33.32925 0.55649,0.60959 -0.97011,25.70835 -3.39247,55.77505 -5.5138,68.4384 -5.0289,63.7251 -6.60265,64.1802 -0.73333,0.212 -21.10116,-18.3952 -45.26183,-41.3495 z m -257.36659,37.5853 c -0.33451,-0.9622 -3.3282,-26.0494 -6.65265,-55.7494 -3.32447,-29.69997 -6.40254,-56.84997 -6.84015,-60.3333 -0.60164,-4.78893 -0.36181,-6.33333 0.98352,-6.33333 3.63937,0 98.47104,36.42438 98.47104,37.82223 0,1.3311 -77.61973,80.377 -83.01012,84.5353 -1.91856,1.4801 -2.45372,1.4907 -2.95164,0.058 z m 379.29508,-95.15542 c -31.16666,-13.45953 -56.66666,-25.00416 -56.66666,-25.65475 0,-0.65058 9,-8.65054 20,-17.77769 11,-9.12716 29.23965,-24.25268 40.53256,-33.61228 11.2929,-9.35959 20.98756,-16.53709 21.54368,-15.95 0.55612,0.58709 7.40386,24.16744 15.21722,52.40077 7.81336,28.23334 15.0325,54.17027 16.04252,57.63767 1.01003,3.4675 1.42263,6.5573 0.91688,6.8663 -0.50574,0.309 -26.41953,-10.4505 -57.5862,-23.91002 z m -510.66665,16.17292 c 0,-2.357 27.97161,-118.51625 28.71919,-119.26384 0.81118,-0.81117 6.03469,3.48863 44.61414,36.72471 19.43334,16.74174 35.33333,31.29576 35.33333,32.34224 0,1.77308 -102.93258,51.80899 -106.99999,52.01309 -0.91667,0.046 -1.66667,-0.7713 -1.66667,-1.8162 z m 250.86382,-41.55179 c -30.85756,-3.73537 -63.88292,-13.6452 -92.86382,-27.86538 -73.06417,-35.85074 -129.24583,-102.54444 -151.80748,-180.21191 -12.84403,-44.21496 -15.05,-95.34229 -6.06795,-140.63501 14.95028,-75.38799 60.06318,-142.60698 124.85139,-186.0307 28.2613,-18.94189 70.28353,-36.47484 103.02404,-42.98473 20.71389,-4.11861 35.46489,-5.46421 60.03497,-5.47641 33.44934,-0.0167 58.48108,3.78693 88.87939,13.50509 108.50631,34.68883 186.70109,128.95656 201.13969,242.48397 3.01942,23.74094 2.14663,64.21434 -1.8689,86.66667 -14.83855,82.96776 -62.83423,153.95743 -134.57455,199.04711 -54.67553,34.36425 -124.39507,49.53333 -190.74678,41.5013 z m 396.46949,-68.07382 c -2.2,-0.23759 -26.19999,-1.67675 -53.33332,-3.19814 -27.13334,-1.52138 -49.75818,-3.18581 -50.27743,-3.69873 -0.51924,-0.51291 11.12724,-21.5176 25.88108,-46.67709 26.82517,-45.74454 26.82517,-45.74454 29.76312,-42.65591 3.44795,3.62477 67.26235,92.77279 68.24835,95.34208 0.5141,1.33977 -1.3039,1.69684 -7.8058,1.53315 -4.6618,-0.11734 -10.276,-0.40778 -12.476,-0.64536 z m -744.22921,-9.02466 c 1.34134,-3.4955 67.57095,-102.11668 68.57138,-102.10828 1.5664,0.0133 52.77381,91.98684 51.77232,92.98832 -0.94321,0.94322 -105.21878,10.846 -115.25712,10.94568 -4.47096,0.0444 -5.64281,-0.37622 -5.08658,-1.82572 z M 973.3551,787.66667 c 0.0447,-3.41811 18.51686,-102.64976 19.24377,-103.37668 0.41629,-0.41628 11.71083,6.69817 25.09903,15.80989 13.3881,9.11173 35.8615,24.36679 49.9409,33.90012 14.0793,9.53333 25.4236,17.92329 25.2096,18.64436 -0.3197,1.077 -115.27694,36.65735 -118.51509,36.68151 -0.55,0.004 -0.9902,-0.74254 -0.97821,-1.6592 z M 281.50319,760.60505 c -31.07324,-8.33481 -56.83324,-15.49065 -57.24445,-15.90185 -0.4112,-0.4112 -0.18764,-1.28105 0.49681,-1.933 3.5747,-3.40497 98.10854,-72.10353 99.21931,-72.10353 1.69863,0 1.40529,-1.53796 10.04501,52.66666 8.90461,55.86654 8.44737,51.87683 5.98012,52.18011 -1.1,0.13521 -27.42356,-6.57356 -58.4968,-14.90839 z M 992.8042,671 c -4.13562,-20.46445 -16.95718,-100.62407 -16.21344,-101.36537 1.01022,-1.0069 115.22134,27.33982 117.20144,29.0889 0.9184,0.81127 -97.66386,75.94314 -99.6468,75.94314 -0.33012,0 -0.93365,-1.65 -1.3412,-3.66667 z M 279.20394,628.89368 C 229.32657,593.96431 225.68619,591.27108 226.79617,590.12128 227.88977,588.98844 341.79826,556 344.61634,556 c 1.76441,0 2.09386,0.80683 1.49721,3.66667 -0.42075,2.01666 -4.67843,24.36666 -9.46151,49.66666 -9.7139,51.38147 -9.55698,50.70568 -11.7419,50.56552 -0.86724,-0.0556 -21.43504,-14.00797 -45.7062,-31.00517 z M 946.93155,513.77171 c -14.13959,-24.69223 -25.40239,-45.69223 -25.02847,-46.66667 0.37394,-0.97444 2.3487,-1.80131 4.38839,-1.83748 2.03968,-0.0361 28.79952,-2.61251 59.46633,-5.72519 30.6668,-3.11268 55.9847,-5.29226 56.2621,-4.84352 0.7555,1.22252 -66.47175,103.95086 -68.03331,103.95996 -0.74069,0.004 -12.91547,-20.19488 -27.05504,-44.8871 z m -631.0382,-15.3103 c -18.64134,-26.55197 -34.08736,-49.06797 -34.32445,-50.03553 -0.5492,-2.24112 -5.18877,-2.40533 63.09776,2.23323 32.26666,2.19181 59.11666,3.99016 59.66666,3.99633 0.55,0.007 0.97318,0.76123 0.94039,1.67789 -0.082,2.29412 -52.55365,89.42664 -54.17948,89.96859 -0.71913,0.23971 -16.55952,-21.28852 -35.20088,-47.84051 z m 575.43996,-59.32665 c -12.46667,-10.65692 -30.31666,-25.75488 -39.66666,-33.55101 -9.35,-7.79615 -17,-14.85228 -17,-15.6803 0,-1.65158 107.97119,-54.3767 109.08089,-53.26701 0.51477,0.51477 -16.74515,77.57783 -26.26579,117.27287 -0.51569,2.15012 -1.51005,4.06509 -2.20969,4.25549 -0.69964,0.1904 -11.47208,-8.37312 -23.93875,-19.03004 z m -479.29992,7.28249 c -2.40068,-5.61197 -31.0516,-114.51016 -30.31992,-115.24184 1.15687,-1.15688 114.32296,49.35863 113.85853,50.82459 -0.36388,1.1486 -68.33652,57.20423 -78.56236,64.78876 -3.65701,2.71241 -3.65701,2.71241 -4.97625,-0.37151 z m 363.29992,-80.40078 c -34.54529,-12.72326 -47.99999,-18.25159 -47.99999,-19.72246 0,-2.29897 79.97259,-85.38642 82.83221,-86.05844 1.00894,-0.2371 1.83445,0.37246 1.83445,1.35458 0,0.98212 3.3,28.35792 7.33333,60.83513 4.03334,32.4772 7.33334,59.61764 7.33334,60.31208 0,0.69445 -0.75,1.19405 -1.66667,1.11023 -0.91667,-0.0839 -23.26667,-8.10784 -49.66667,-17.83112 z m -270.04627,9.12618 c -0.0913,-7.51916 9.82249,-117.16504 10.68447,-118.16901 0.82158,-0.95692 29.29778,25.85879 72.38058,68.15996 12.72265,12.49183 17.83509,18.341 16.66667,19.06839 -0.927,0.57708 -11.28544,4.30666 -23.01877,8.28797 -23.59472,8.00605 -71.89414,24.63061 -74.80766,25.74864 -1.31708,0.50541 -1.8725,-0.39711 -1.90529,-3.09595 z m 105.91144,-36.80932 c 1.55968,-3.11666 12.72808,-27.99972 24.81865,-55.29569 12.09057,-27.29596 22.5954,-49.64596 23.34408,-49.66667 1.35847,-0.0376 56.63877,106.57019 56.63877,109.22756 0,0.95659 -17.08412,1.40147 -53.81865,1.40147 -53.81865,0 -53.81865,0 -50.98285,-5.66667 z"
         id="path306" />
      <path
         style="fill:#f9b44d;stroke-width:1.33333"
         d="m 627.2927,1059.7172 c -14.64433,-29.5038 -26.62605,-54.2599 -26.62605,-55.0135 0,-1.5237 102.04417,-1.1075 103.49712,0.422 0.96549,1.0165 -47.43311,107.2974 -49.11709,107.8587 -0.62035,0.2068 -13.10964,-23.7634 -27.75398,-53.2672 z m 168.70728,19.9753 c -59.68895,-56.5754 -78.66666,-74.7985 -78.66666,-75.5389 0,-1.2125 97.15871,-35.43932 98.0553,-34.54273 0.39629,0.39628 -1.10205,24.04596 -3.32963,52.55483 -4.68786,59.9958 -5.2653,65.8507 -6.48829,65.7879 -0.49723,-0.025 -4.80405,-3.743 -9.57072,-8.2611 z m -292.54874,0.709 c -1.85172,-11.641 -12.87439,-113.06929 -12.51235,-115.13599 0.33051,-1.88674 8.22276,0.6912 48.70215,15.9081 26.56925,9.98786 48.31925,18.68538 48.33333,19.32779 0.0251,1.141 -80.82838,83.7724 -82.74714,84.5668 -0.53339,0.2209 -1.33259,-1.8791 -1.77599,-4.6667 z m 378.86442,-91.44174 c -30.62639,-13.30292 -55.52639,-24.5954 -55.33333,-25.09437 0.19304,-0.49898 6.05098,-5.59951 13.01765,-11.33452 6.96667,-5.73502 24.86445,-20.55282 39.77284,-32.92846 14.9084,-12.37564 27.42422,-22.18313 27.81293,-21.79441 0.53615,0.53615 32.33457,113.5875 32.40052,115.192 0.0377,0.9196 -6.04588,-1.6164 -57.67061,-24.04024 z m -509.45232,17.92804 c -0.92598,-1.6821 27.88532,-118.22113 29.22717,-118.22113 1.40593,0 79.01548,66.10377 79.15993,67.42432 0.0456,0.4167 -7.86712,4.44213 -17.58378,8.94538 -9.71667,4.50326 -34.01246,15.96184 -53.99063,25.46352 -19.97819,9.50171 -36.54389,16.87621 -36.81269,16.38791 z m 265.3938,-41.59485 C 543.16767,958.18108 457.97912,905.72857 408.78215,824 356.53562,737.20533 353.43734,627.40261 400.70364,537.69893 455.48498,433.73293 568.70645,372.09356 685.33332,382.74249 787.51425,392.07241 877.68495,454.27003 922.01514,546 c 28.55726,59.09193 36.5502,123.01903 23.38318,187.01733 -11.401,55.41459 -36.38642,102.55038 -76.05514,143.48039 -35.76781,36.90509 -73.22128,60.19568 -122.00987,75.87233 -33.6059,10.79819 -73.80533,15.56084 -109.07617,12.9229 z m 338.79432,-71.94438 c -32.78836,-1.90732 -59.94738,-3.80001 -60.35336,-4.206 -0.79463,-0.79464 51.3489,-90.50093 52.56901,-90.43826 1.59569,0.082 69.42139,96.46136 68.44459,97.25888 -0.5748,0.46928 -27.8719,-0.7073 -60.66024,-2.61462 z m -700.66413,-5.76812 c 1.33701,-3.48418 66.39425,-100.91537 67.3663,-100.88928 0.99249,0.0267 49.97108,87.15203 50.67745,90.14743 0.23711,1.00544 -0.29122,1.82807 -1.17408,1.82807 -2.72928,0 -104.19537,9.25961 -111.12497,10.14105 -5.54769,0.70568 -6.41532,0.52032 -5.7447,-1.22727 z M 974.66664,785.99173 c 0,-4.34622 17.62396,-98.72769 18.63167,-99.77798 0.59079,-0.61578 20.19039,11.91748 43.55459,27.85166 48.9266,33.36747 55.4933,38.03278 54.6796,38.84652 -0.6665,0.66646 -114.30452,35.07479 -115.86586,35.08288 -0.55,0.003 -1,-0.89853 -1,-2.00308 z M 282.00303,759.81865 c -30.065,-8.03692 -55.10817,-15.05712 -55.6515,-15.60045 -0.54332,-0.54332 8.7553,-8.13485 20.66362,-16.87005 11.90834,-8.7352 33.73566,-24.76203 48.50518,-35.61516 C 310.28985,680.87984 323.03985,672 323.85366,672 c 0.81381,0 1.48068,0.75 1.48192,1.66667 0.001,0.91666 3.60124,23.73 8,50.69629 4.39876,26.96631 7.99774,49.31631 7.99774,49.66667 0,1.45052 -7.14389,-0.26062 -59.33029,-14.21098 z m 712.06015,-88.00488 c -1.59004,-4.55837 -17.55699,-100.5811 -16.85519,-101.36445 0.61039,-0.68131 106.12651,25.42864 114.64731,28.36944 1.0743,0.3708 -17.1655,14.87476 -43.3334,34.45773 -24.8537,18.59959 -47.132,35.2875 -49.50732,37.08424 -3.2749,2.47724 -4.47164,2.82844 -4.9514,1.45304 z M 287.99999,633.90892 c -52.42878,-36.59979 -60.00114,-42.02937 -59.98834,-43.01329 0.0133,-1.01952 116.37767,-34.95074 117.16402,-34.16439 0.28161,0.28161 -1.09599,9.08228 -3.06135,19.55705 -11.61453,61.9022 -15.91183,82.37444 -17.28227,82.33235 -0.8243,-0.0253 -17.39872,-11.14559 -36.83206,-24.71172 z M 953.97214,524.42548 c -10.84062,-18.93401 -22.31915,-38.98444 -25.50786,-44.55649 -3.1887,-5.57207 -5.79764,-10.78531 -5.79764,-11.58498 0,-0.79968 2.55,-1.80161 5.66667,-2.22652 12.64615,-1.72412 112.19389,-11.30804 112.65599,-10.8459 0.4547,0.45464 -63.89822,100.02468 -66.27703,102.54722 -0.56645,0.60068 -9.89951,-14.39932 -20.74013,-33.33333 z M 326.65253,512.36056 c -38.98634,-55.53845 -44.20512,-63.25241 -43.36266,-64.09488 0.99146,-0.99145 119.68627,6.46571 120.92077,7.59701 0.99931,0.91578 -51.1882,88.46316 -53.11658,89.10595 -0.69158,0.23053 -11.69027,-14.44311 -24.44153,-32.60808 z m 548.01411,-88.41417 c -21.63333,-18.31032 -39.24382,-33.71375 -39.13442,-34.22983 0.10933,-0.51609 24.1094,-12.52231 53.33333,-26.68047 35.69245,-17.29198 53.26037,-25.15996 53.51811,-23.96868 0.21102,0.9754 -5.63898,27.7272 -13,59.44846 -7.36103,31.72125 -13.38368,57.93206 -13.38368,58.24624 0,1.86662 -5.75478,-2.70224 -41.33334,-32.81572 z m -461.72598,23.07536 c -1.37378,-2.43295 -30.5178,-113.88907 -29.9331,-114.47378 0.69416,-0.69416 108.92261,46.88588 110.74731,48.6874 1.22989,1.21427 -0.7824,2.95031 -45.08821,38.89844 -35.24968,28.60031 -34.90542,28.3412 -35.726,26.88794 z m 363.06715,-81.79751 c -26.02904,-9.53807 -47.73612,-17.76545 -48.23796,-18.28308 -0.84888,-0.8756 79.03613,-84.42619 81.62385,-85.36921 1.74045,-0.63427 1.99456,1.04358 9.25281,61.09472 7.12287,58.93097 7.22686,60.02713 5.6868,59.94976 -0.55,-0.0276 -22.29648,-7.85412 -48.3255,-17.39219 z m -270.05174,5.10909 c 0.44805,-3.85 2.89004,-30.64881 5.42665,-59.55293 2.5366,-28.90411 4.83392,-52.77484 5.10515,-53.04607 0.27122,-0.27122 12.12241,10.73187 26.33596,24.45131 36.67956,35.40444 62.55695,60.88516 62.1725,61.21941 -0.62979,0.54756 -97.91704,33.92828 -98.88312,33.92828 -0.53448,0 -0.60518,-3.15 -0.15714,-7 z m 104.71058,-27.34826 c 0,-2.18855 47.6218,-107.52403 48.77343,-107.8828 1.3849,-0.43144 56.39633,106.34505 55.58909,107.89773 -0.6848,1.31719 -104.36252,1.30235 -104.36252,-0.0149 z"
         id="path304" />
      <path
         style="fill:#faae3e;stroke-width:1.33333"
         d="m 627.66182,1057.7666 c -14.46838,-29.095 -26.12972,-53.0765 -25.91406,-53.2921 0.21565,-0.2157 23.22162,-0.015 51.12438,0.4452 57.6571,0.9516 54.88083,-7.67863 21.15016,65.747 -19.70984,42.9048 -18.31173,40 -19.25233,40 -0.44109,0 -12.63975,-23.8051 -27.10815,-52.9001 z m 134.48603,-11.7538 c -23.38535,-22.1581 -42.58535,-40.7472 -42.66667,-41.3091 -0.0813,-0.5619 7.95214,-3.8584 17.85213,-7.32562 9.9,-3.46719 30,-10.53401 44.66667,-15.70407 31.94935,-11.26225 32.66208,-11.48244 32.68359,-10.0972 0.0825,5.31539 -8.326,108.58279 -9.05771,111.23999 -0.91243,3.3136 -3.03308,1.5185 -43.47801,-36.804 z m -257.32576,35.2946 c -1.25489,-3.7337 -13.20426,-114.70301 -12.43433,-115.47295 0.71591,-0.71592 89.17088,31.83267 93.08723,34.25305 1.26941,0.7846 -9.77435,12.6849 -39.11026,42.1437 -27.36506,27.4797 -41.09849,40.3977 -41.54264,39.0762 z m 428.2793,-71.3171 c -0.72301,-0.723 -69.07557,-30.54142 -90.81173,-39.61609 -7.17401,-2.99509 -12.82663,-6.10456 -12.56136,-6.90992 0.26527,-0.80536 5.60107,-5.66429 11.85733,-10.79762 6.25627,-5.13334 23.14711,-19.08334 37.53517,-31 C 893.50888,909.75 905.80286,900 906.44075,900 c 0.63789,0 4.32756,11.55 8.19924,25.66667 3.87169,14.11666 10.77353,39.01666 15.33743,55.33333 7.11524,25.4382 7.97744,29.6667 6.04916,29.6667 -1.23686,0 -2.55319,-0.3044 -2.92519,-0.6764 z M 377.5271,989.66667 C 379.63006,981.05 385.90519,955.1 391.47183,932 c 5.56665,-23.1 10.24213,-42.12939 10.38997,-42.28752 0.66226,-0.7084 76.80485,64.98392 76.80485,66.26369 0,0.54615 -3.75,2.6661 -8.33333,4.71102 -4.58333,2.0449 -14.33333,6.5711 -21.66666,10.05822 -43.01772,20.45562 -73.2797,34.58789 -74.06426,34.58789 -0.49438,0 0.82174,-7.04997 2.9247,-15.66663 z m 263.13955,-25.14822 c -72.52757,-5.71824 -135.73433,-34.40832 -186.13003,-84.486 -17.39226,-17.28249 -26.33238,-28.19032 -39.19527,-47.82206 -59.28944,-90.48939 -62.63847,-208.49256 -8.5968,-302.90848 19.61548,-34.27014 53.53468,-71.52083 85.25544,-93.62914 70.69501,-49.27206 158.71626,-64.93014 241.99999,-43.0493 22.02751,5.78721 31.81983,9.46369 53.37116,20.03794 58.02801,28.4717 104.80004,75.171 133.07625,132.86934 34.07523,69.53141 39.26739,147.24306 14.766,221.00472 -14.21769,42.80249 -37.52033,80.1471 -70.40596,112.83197 -46.4998,46.21592 -101.40698,73.66955 -165.26779,82.63401 -14.61003,2.05088 -47.14344,3.44179 -58.87299,2.517 z m 391.99995,-69.28657 c -1.4666,-0.22273 -27.2666,-1.69956 -57.33329,-3.28183 -30.06667,-1.58226 -55.3994,-3.09286 -56.29497,-3.35689 -1.00628,-0.29665 3.28337,-8.77833 11.22941,-22.20325 7.07175,-11.94779 18.39249,-31.30258 25.15721,-43.01066 6.76472,-11.70808 12.86088,-21.47454 13.547,-21.70325 0.68614,-0.22871 15.89814,20.09013 33.80444,45.15297 35.2659,49.36056 35.195,49.25712 33.6232,48.98946 -0.5865,-0.0999 -2.2663,-0.36382 -3.733,-0.58655 z M 279.33078,884.45869 c 1.35763,-2.08561 16.38645,-24.675 33.39739,-50.19862 30.92895,-46.4066 30.92895,-46.4066 55.81501,-2.15907 13.68733,24.33615 24.66401,44.46959 24.39261,44.74097 -0.53669,0.5367 -9.37707,1.4173 -64.9358,6.46838 -20.16666,1.83342 -39.92264,3.69505 -43.90216,4.13694 -7.23548,0.80344 -7.23548,0.80344 -4.76705,-2.9886 z m 696.6692,-99.36232 c 0,-2.58725 17.35529,-97.56278 17.93378,-98.14126 0.25884,-0.25884 7.70744,4.52037 16.55234,10.62046 8.845,6.10011 30.1931,20.6911 47.4403,32.42443 17.2472,11.73333 31.3694,21.67016 31.3827,22.08183 0.013,0.41168 -24.7258,8.16509 -54.9758,17.22982 -30.25,9.06472 -55.74999,16.7421 -56.66666,17.06082 -0.91666,0.31873 -1.66666,-0.25551 -1.66666,-1.2761 z M 284.66666,759.25513 c -28.6,-7.64834 -52.71459,-13.90961 -53.58797,-13.91393 -0.87339,-0.004 -1.93147,-0.56365 -2.3513,-1.24293 -0.75057,-1.21446 93.64475,-71.5039 94.6612,-70.48744 0.28646,0.28645 3.83687,20.89121 7.88979,45.78833 4.05293,24.89713 7.70049,47.21751 8.1057,49.60084 0.5201,3.05907 0.22888,4.30803 -0.99034,4.24727 -0.9499,-0.0473 -25.12708,-6.34379 -53.72708,-13.99214 z M 994.21218,667.66941 C 993.09768,661.24555 981.64442,594.35635 979.54322,582 c -0.99763,-5.86667 -1.74758,-10.77207 -1.66656,-10.90089 0.33788,-0.5372 112.77494,28.29112 112.72014,28.90089 -0.033,0.36667 -20.164,15.66667 -44.7356,34 -24.5715,18.33333 -46.07533,34.38457 -47.78616,35.66941 -3.08413,2.31619 -3.117,2.29918 -3.86286,-2 z M 303.01121,642.94439 c -30.20427,-21.22062 -53.14967,-37.25612 -64.0108,-44.73424 -5.31644,-3.66048 -9.46774,-6.85394 -9.22511,-7.09656 1.27568,-1.27568 113.61922,-33.18499 113.95478,-32.36695 0.33687,0.82124 -15.81845,86.83145 -17.95406,95.58669 -0.40248,1.65 -1.11673,2.97498 -1.58724,2.94439 -0.47049,-0.0305 -10.00041,-6.48059 -21.17757,-14.33333 z M 972.9249,555.02175 c -34.25539,-59.0546 -49.08322,-86.09987 -47.68043,-86.96684 0.89816,-0.5551 6.23556,-1.38415 11.86092,-1.84235 5.62536,-0.4582 30.92792,-2.94299 56.22792,-5.52175 25.29999,-2.57874 46.11979,-4.68913 46.26629,-4.68972 0.1464,-6e-4 -7.4746,11.84891 -16.9357,26.33224 -9.461,14.48334 -23.96376,36.73007 -32.22826,49.43718 -8.26449,12.70712 -15.45198,23.3669 -15.97221,23.68841 -0.52023,0.32152 -1.21256,0.1248 -1.53853,-0.43717 z M 339.33332,528.41939 c -5.86666,-8.52602 -15.78357,-22.7583 -22.03755,-31.62728 -27.03506,-38.33928 -33.48626,-47.7063 -33.07054,-48.01778 0.24279,-0.18192 24.74143,1.3402 54.44143,3.38247 29.7,2.04227 56.31418,3.74247 59.14265,3.77821 4.24929,0.0537 4.99376,0.453 4.28553,2.29862 -1.36034,3.54498 -50.68786,85.77002 -51.42818,85.72666 -0.36667,-0.0215 -5.46667,-7.01488 -11.33334,-15.5409 z M 881.33331,427.90825 c -17.23333,-14.64124 -34.15926,-28.8602 -37.61318,-31.59768 -3.45394,-2.73748 -6.30394,-5.45825 -6.33334,-6.04616 -0.0295,-0.5879 7.89652,-4.86738 17.61319,-9.50996 9.71667,-4.64257 33.19272,-16.00761 52.16901,-25.25565 34.50235,-16.81463 34.50235,-16.81463 33.60664,-11.82339 -2.93891,16.37682 -25.67116,110.17531 -26.77565,110.48248 -0.73334,0.20395 -15.43334,-11.60838 -32.66667,-26.24964 z M 405.36348,414.98713 c -4.61685,-17.40958 -11.32181,-42.4254 -14.89992,-55.5907 -3.57809,-13.1653 -6.34617,-24.35264 -6.15126,-24.86076 0.19489,-0.50814 11.75436,4.16513 25.68769,10.38501 13.93333,6.21989 37.56509,16.67317 52.51501,23.22952 14.94992,6.55635 28.05296,12.40824 29.11788,13.0042 1.46963,0.82244 -0.1004,2.69829 -6.515,7.78413 -4.64817,3.68532 -13.89797,11.13179 -20.55512,16.5477 -17.46697,14.21024 -47.64916,38.68334 -49.35056,40.01573 -1.0007,0.78365 -4.0732,-8.736 -9.84872,-30.51483 z m 375.96983,-49.20828 c -23.1,-8.44676 -44.1,-16.11288 -46.66666,-17.03581 -2.56667,-0.92293 -4.66667,-2.31407 -4.66667,-3.09143 0,-0.77734 8.96236,-10.61697 19.91635,-21.86582 42.24946,-43.38675 59.8042,-61.17151 60.03216,-60.81883 0.66522,1.02915 14.2707,115.69432 13.86282,116.83403 -0.2629,0.7346 -19.378,-5.57536 -42.478,-14.02214 z m -274.19363,4.55448 c 0.42671,-3.11666 2.63792,-28.16666 4.91383,-55.66666 2.2759,-27.5 4.5449,-51.0438 5.04224,-52.31956 0.71944,-1.84554 9.55569,6.01766 43.23757,38.47624 23.28333,22.4377 42.33333,41.18166 42.33333,41.65326 0,0.47159 -9.45,4.03816 -21,7.92572 -11.55,3.88756 -32.93405,11.2374 -47.5201,16.33298 C 519.56048,371.83089 507.34236,376 506.99515,376 c -0.3472,0 -0.28216,-2.55 0.14453,-5.66667 z M 612.41713,341 c 0.72381,-1.71735 38.91472,-87.1752 44.2044,-98.91392 2.96533,-6.5806 2.96533,-6.5806 26.66793,40 13.03643,25.61932 25.43452,49.73059 27.5513,53.58059 3.84869,7 3.84869,7 -47.6387,7 -40.67565,0 -51.33988,-0.34998 -50.78493,-1.66667 z"
         id="path302" />
    </g>
  </g>
</svg>
